<?xml version="1.0" encoding="UTF-8"?>
<!DOCTYPE svg PUBLIC "-//W3C//DTD SVG 1.1//EN" "http://www.w3.org/Graphics/SVG/1.1/DTD/svg11.dtd">
<svg xmlns="http://www.w3.org/2000/svg" version="1.1" width="500px" height="114px" style="shape-rendering:geometricPrecision; text-rendering:geometricPrecision; image-rendering:optimizeQuality; fill-rule:evenodd; clip-rule:evenodd" xmlns:xlink="http://www.w3.org/1999/xlink">
<g><path style="opacity:1" fill="#74e4e8" d="M 112.5,5.5 C 118.975,4.22997 122.975,6.72997 124.5,13C 123.424,14.7261 123.257,16.5594 124,18.5C 128.043,24.7531 132.21,30.9197 136.5,37C 146.442,38.5485 148.776,43.5485 143.5,52C 139.022,54.1708 134.856,53.6708 131,50.5C 128.167,51.6667 125.333,52.8333 122.5,54C 120.05,59.6904 116.216,60.8571 111,57.5C 108.12,52.0967 109.62,48.4301 115.5,46.5C 123.315,49.7308 128.982,47.5641 132.5,40C 128,33.5 123.5,27 119,20.5C 112.522,22.6731 108.688,20.3397 107.5,13.5C 107.71,9.8048 109.377,7.13813 112.5,5.5 Z"/></g>
<g><path style="opacity:1" fill="#74e4e9" d="M 87.5,12.5 C 96.3058,12.464 98.6391,16.2974 94.5,24C 86.735,26.575 83.5683,23.7416 85,15.5C 86.045,14.6266 86.8783,13.6266 87.5,12.5 Z"/></g>
<g><path style="opacity:1" fill="#68e2e7" d="M 126.5,12.5 C 146.46,14.2945 157.293,25.2945 159,45.5C 161.63,49.1317 164.63,52.465 168,55.5C 168.781,56.7287 169.281,58.062 169.5,59.5C 168.559,62.1076 166.892,64.1076 164.5,65.5C 166.464,68.0178 167.13,70.6845 166.5,73.5C 163.929,76.9804 162.763,80.9804 163,85.5C 162.167,86.3333 161.333,87.1667 160.5,88C 157.45,88.679 154.45,89.5123 151.5,90.5C 149.246,94.0066 147.246,97.6733 145.5,101.5C 138.858,102.664 132.192,102.831 125.5,102C 122.017,98.4262 118.017,95.5928 113.5,93.5C 114.501,76.0865 123.001,70.7532 139,77.5C 143.833,76.6667 146.667,73.8333 147.5,69C 144.962,61.2477 140.295,59.581 133.5,64C 128.227,65.3495 123.561,64.3495 119.5,61C 121.751,58.133 124.417,55.7997 127.5,54C 132.382,55.0647 137.382,55.398 142.5,55C 148.542,51.2519 150.042,46.0852 147,39.5C 144.32,36.5003 140.987,34.8336 137,34.5C 133.724,28.8918 130.057,23.5585 126,18.5C 125.82,16.5116 125.986,14.5116 126.5,12.5 Z"/></g>
<g><path style="opacity:1" fill="#73e4e8" d="M 103.5,23.5 C 111.446,22.7805 115.78,26.2805 116.5,34C 116.247,40.9202 112.58,44.5868 105.5,45C 104.074,47.7733 102.74,50.6066 101.5,53.5C 103.015,55.5473 103.849,57.8807 104,60.5C 107,62.1667 110,63.8333 113,65.5C 116.307,62.7446 119.474,62.9113 122.5,66C 124.5,66.1667 126.5,66.3333 128.5,66.5C 132.963,65.7876 137.296,64.9543 141.5,64C 143.91,64.7579 144.91,66.4246 144.5,69C 144.646,71.0342 143.98,72.7009 142.5,74C 140.167,74.6667 137.833,74.6667 135.5,74C 135.043,73.586 134.709,73.086 134.5,72.5C 130.5,71.1667 126.5,71.1667 122.5,72.5C 121.232,74.047 119.565,75.047 117.5,75.5C 114.312,79.9544 112.812,84.9544 113,90.5C 105.946,94.4385 102.946,92.4385 104,84.5C 108.984,81.5223 111.65,77.189 112,71.5C 107.872,66.9231 102.872,65.2565 97,66.5C 90.2036,64.9072 88.2036,60.9072 91,54.5C 92.7635,53.0563 94.7635,52.0563 97,51.5C 98.0695,48.7919 99.2361,46.1253 100.5,43.5C 93.7952,35.6571 94.7952,28.9905 103.5,23.5 Z"/></g>
<g><path style="opacity:1" fill="#7de6ea" d="M 114.5,24.5 C 115.601,23.4017 116.934,23.235 118.5,24C 122.572,29.069 126.239,34.4023 129.5,40C 128.262,43.8016 125.595,45.9683 121.5,46.5C 119.333,45.2081 117,44.3747 114.5,44C 121.069,37.3582 121.069,30.8582 114.5,24.5 Z"/></g>
<g><path style="opacity:1" fill="#7ee6ea" d="M 62.5,25.5 C 68.7028,24.7569 70.7028,27.2569 68.5,33C 65.6526,34.8517 63.1526,34.3517 61,31.5C 60.2516,29.1599 60.7516,27.1599 62.5,25.5 Z"/></g>
<g><path style="opacity:0.282" fill="#cdf6f7" d="M 276.5,36.5 C 281.975,35.5111 287.642,35.1778 293.5,35.5C 293.5,38.1667 293.5,40.8333 293.5,43.5C 290.167,43.5 286.833,43.5 283.5,43.5C 286.287,42.5233 289.287,42.19 292.5,42.5C 292.5,40.5 292.5,38.5 292.5,36.5C 287.167,36.5 281.833,36.5 276.5,36.5 Z"/></g>
<g><path style="opacity:1" fill="#7be5e9" d="M 181.5,35.5 C 185.215,35.423 188.881,35.7564 192.5,36.5C 192.579,39.2706 192.079,41.9373 191,44.5C 187.58,41.8307 184.414,41.9974 181.5,45C 185.206,47.9435 189.04,50.7768 193,53.5C 196.762,62.9778 193.596,68.3111 183.5,69.5C 179.807,69.2469 176.474,68.0802 173.5,66C 174.423,63.9592 174.756,61.7925 174.5,59.5C 177.156,60.158 179.822,60.8246 182.5,61.5C 184.688,61.6927 186.355,60.8594 187.5,59C 184.498,56.497 181.165,54.497 177.5,53C 174.682,49.6621 173.849,45.8288 175,41.5C 176.436,38.5581 178.603,36.5581 181.5,35.5 Z"/></g>
<g><path style="opacity:1" fill="#73e4e8" d="M 234.5,34.5 C 236.686,35.8233 238.186,37.8233 239,40.5C 242.798,49.7553 246.298,59.0887 249.5,68.5C 244.476,68.4055 239.809,67.4055 235.5,65.5C 233.059,65.536 231.059,66.3693 229.5,68C 226.773,68.8184 224.106,68.6517 221.5,67.5C 226.036,56.5553 230.369,45.5553 234.5,34.5 Z M 235.5,53.5 C 236.339,54.6412 237.006,55.9745 237.5,57.5C 236.167,58.8333 234.833,58.8333 233.5,57.5C 234.18,56.1401 234.847,54.8068 235.5,53.5 Z"/></g>
<g><path style="opacity:1" fill="#71e4e8" d="M 251.5,35.5 C 257.593,35.1392 263.593,35.6392 269.5,37C 276.313,43.636 275.979,49.9693 268.5,56C 271.086,59.8359 273.419,63.8359 275.5,68C 272.446,68.8214 269.446,68.6548 266.5,67.5C 264.902,63.2886 262.568,59.622 259.5,56.5C 258.509,60.4454 258.176,64.4454 258.5,68.5C 256.167,68.5 253.833,68.5 251.5,68.5C 251.5,57.5 251.5,46.5 251.5,35.5 Z M 258.5,43.5 C 260.857,43.3367 263.19,43.5034 265.5,44C 266.86,45.9376 266.527,47.6043 264.5,49C 262.527,49.4955 260.527,49.6621 258.5,49.5C 258.5,47.5 258.5,45.5 258.5,43.5 Z"/></g>
<g><path style="opacity:1" fill="#61e1e6" d="M 276.5,36.5 C 281.833,36.5 287.167,36.5 292.5,36.5C 292.5,38.5 292.5,40.5 292.5,42.5C 289.287,42.19 286.287,42.5233 283.5,43.5C 283.5,45.1667 283.5,46.8333 283.5,48.5C 285.948,49.4731 288.615,49.8064 291.5,49.5C 291.5,51.5 291.5,53.5 291.5,55.5C 288.615,55.1936 285.948,55.5269 283.5,56.5C 283.5,58.1667 283.5,59.8333 283.5,61.5C 286.625,62.4794 289.958,62.8128 293.5,62.5C 293.5,64.5 293.5,66.5 293.5,68.5C 287.833,68.5 282.167,68.5 276.5,68.5C 276.5,57.8333 276.5,47.1667 276.5,36.5 Z"/></g>
<g><path style="opacity:0.431" fill="#c0f3f5" d="M 309.5,36.5 C 305.5,36.5 301.5,36.5 297.5,36.5C 297.5,47.1667 297.5,57.8333 297.5,68.5C 296.505,57.6794 296.172,46.6794 296.5,35.5C 301.032,35.1818 305.366,35.5151 309.5,36.5 Z"/></g>
<g><path style="opacity:1" fill="#6be3e7" d="M 309.5,36.5 C 318.464,37.6363 323.131,42.803 323.5,52C 323.43,58.4779 320.763,63.4779 315.5,67C 309.593,68.3608 303.593,68.8608 297.5,68.5C 297.5,57.8333 297.5,47.1667 297.5,36.5C 301.5,36.5 305.5,36.5 309.5,36.5 Z M 309.5,43.5 C 316.526,48.1639 317.192,53.6639 311.5,60C 309.323,61.2022 306.989,61.7022 304.5,61.5C 304.5,55.5 304.5,49.5 304.5,43.5C 306.167,43.5 307.833,43.5 309.5,43.5 Z"/></g>
<g><path style="opacity:1" fill="#ffc063" d="M 354.5,46.5 C 355.906,46.0269 356.573,45.0269 356.5,43.5C 358.5,40.8333 360.833,38.5 363.5,36.5C 365.476,46.7809 366.143,57.4476 365.5,68.5C 363.5,68.5 361.5,68.5 359.5,68.5C 359.666,63.1563 359.499,57.8229 359,52.5C 356.651,55.0168 354.151,57.3501 351.5,59.5C 348.812,57.4789 346.479,55.1456 344.5,52.5C 344.631,51.6236 344.298,50.9569 343.5,50.5C 342.504,56.4632 342.171,62.4632 342.5,68.5C 340.5,68.5 338.5,68.5 336.5,68.5C 336.5,57.5 336.5,46.5 336.5,35.5C 337.552,35.3505 338.552,35.5172 339.5,36C 343.535,39.7002 347.202,43.7002 350.5,48C 352.066,48.2997 353.399,47.7997 354.5,46.5 Z"/></g>
<g><path style="opacity:0.682" fill="#fed28e" d="M 363.5,36.5 C 364.209,35.596 365.209,35.2627 366.5,35.5C 366.828,46.6794 366.495,57.6794 365.5,68.5C 366.143,57.4476 365.476,46.7809 363.5,36.5 Z"/></g>
<g><path style="opacity:0.667" fill="#ffd79a" d="M 377.5,36.5 C 375.5,36.5 373.5,36.5 371.5,36.5C 371.5,47.1667 371.5,57.8333 371.5,68.5C 370.505,57.6794 370.172,46.6794 370.5,35.5C 373.059,35.1984 375.393,35.5318 377.5,36.5 Z"/></g>
<g><path style="opacity:1" fill="#febe5d" d="M 377.5,36.5 C 377.5,47.1667 377.5,57.8333 377.5,68.5C 375.5,68.5 373.5,68.5 371.5,68.5C 371.5,57.8333 371.5,47.1667 371.5,36.5C 373.5,36.5 375.5,36.5 377.5,36.5 Z"/></g>
<g><path style="opacity:1" fill="#ffc063" d="M 388.5,40.5 C 388.738,42.4044 389.738,43.7377 391.5,44.5C 392.833,45.1667 393.833,46.1667 394.5,47.5C 394.738,49.4044 395.738,50.7377 397.5,51.5C 398.167,51.5 398.5,51.8333 398.5,52.5C 398.783,53.2891 399.283,53.9558 400,54.5C 400.499,48.5092 400.666,42.5092 400.5,36.5C 402.5,36.5 404.5,36.5 406.5,36.5C 406.832,47.1874 406.499,57.8541 405.5,68.5C 404.583,67.8728 403.583,67.5394 402.5,67.5C 398.126,63.1278 394.126,58.4611 390.5,53.5C 390.217,52.7109 389.717,52.0442 389,51.5C 388.501,57.1569 388.334,62.8236 388.5,68.5C 386.167,68.5 383.833,68.5 381.5,68.5C 381.5,57.5 381.5,46.5 381.5,35.5C 384.803,35.7349 387.137,37.4015 388.5,40.5 Z"/></g>
<g><path style="opacity:0.42" fill="#ffe2b7" d="M 399.5,36.5 C 399.833,36.5 400.167,36.5 400.5,36.5C 400.666,42.5092 400.499,48.5092 400,54.5C 399.283,53.9558 398.783,53.2891 398.5,52.5C 399.488,47.3595 399.821,42.0262 399.5,36.5 Z"/></g>
<g><path style="opacity:0.122" fill="#fff3e2" d="M 399.5,36.5 C 401.948,35.5269 404.615,35.1936 407.5,35.5C 407.5,46.8333 407.5,58.1667 407.5,69.5C 405.302,69.8799 403.635,69.2132 402.5,67.5C 403.583,67.5394 404.583,67.8728 405.5,68.5C 406.499,57.8541 406.832,47.1874 406.5,36.5C 404.5,36.5 402.5,36.5 400.5,36.5C 400.167,36.5 399.833,36.5 399.5,36.5 Z"/></g>
<g><path style="opacity:0.153" fill="#fff3e2" d="M 423.5,36.5 C 419.5,36.5 415.5,36.5 411.5,36.5C 411.5,47.1667 411.5,57.8333 411.5,68.5C 410.505,57.6794 410.172,46.6794 410.5,35.5C 415.032,35.1818 419.366,35.5151 423.5,36.5 Z"/></g>
<g><path style="opacity:1" fill="#ffc164" d="M 423.5,36.5 C 435.963,39.4146 440.13,47.0812 436,59.5C 434.5,63.6667 431.667,66.5 427.5,68C 422.177,68.4994 416.844,68.666 411.5,68.5C 411.5,57.8333 411.5,47.1667 411.5,36.5C 415.5,36.5 419.5,36.5 423.5,36.5 Z M 423.5,43.5 C 428.902,46.0923 430.902,50.4256 429.5,56.5C 428.094,56.9731 427.427,57.9731 427.5,59.5C 425.847,59.6596 424.514,60.3263 423.5,61.5C 421.833,61.5 420.167,61.5 418.5,61.5C 418.5,55.5 418.5,49.5 418.5,43.5C 420.167,43.5 421.833,43.5 423.5,43.5 Z"/></g>
<g><path style="opacity:1" fill="#74e4e8" d="M 80.5,37.5 C 88.0978,37.3341 90.9312,41.0008 89,48.5C 85,52.5 81,52.5 77,48.5C 75.518,43.774 76.6847,40.1074 80.5,37.5 Z"/></g>
<g><path style="opacity:0.827" fill="#ffdfb3" d="M 388.5,40.5 C 390.262,41.2623 391.262,42.5956 391.5,44.5C 389.738,43.7377 388.738,42.4044 388.5,40.5 Z"/></g>
<g><path style="opacity:0.071" fill="#ebfbfb" d="M 309.5,43.5 C 307.833,43.5 306.167,43.5 304.5,43.5C 304.5,49.5 304.5,55.5 304.5,61.5C 303.51,55.3554 303.177,49.0221 303.5,42.5C 305.735,42.2053 307.735,42.5386 309.5,43.5 Z"/></g>
<g><path style="opacity:0.337" fill="#ffe6c1" d="M 423.5,43.5 C 421.833,43.5 420.167,43.5 418.5,43.5C 418.5,49.5 418.5,55.5 418.5,61.5C 420.167,61.5 421.833,61.5 423.5,61.5C 421.735,62.4614 419.735,62.7947 417.5,62.5C 417.5,55.8333 417.5,49.1667 417.5,42.5C 419.735,42.2053 421.735,42.5386 423.5,43.5 Z"/></g>
<g><path style="opacity:0.694" fill="#ffe3bb" d="M 356.5,43.5 C 356.573,45.0269 355.906,46.0269 354.5,46.5C 354.427,44.9731 355.094,43.9731 356.5,43.5 Z"/></g>
<g><path style="opacity:0.4" fill="#cff6f7" d="M 219.5,68.5 C 219.5,57.8333 219.5,47.1667 219.5,36.5C 217.5,36.5 215.5,36.5 213.5,36.5C 213.5,40.8333 213.5,45.1667 213.5,49.5C 210.167,49.5 206.833,49.5 203.5,49.5C 203.5,45.1667 203.5,40.8333 203.5,36.5C 201.5,36.5 199.5,36.5 197.5,36.5C 197.5,47.1667 197.5,57.8333 197.5,68.5C 196.505,57.6794 196.172,46.6794 196.5,35.5C 199.167,35.5 201.833,35.5 204.5,35.5C 204.5,39.8333 204.5,44.1667 204.5,48.5C 207.167,48.5 209.833,48.5 212.5,48.5C 212.5,44.1667 212.5,39.8333 212.5,35.5C 215.167,35.5 217.833,35.5 220.5,35.5C 220.828,46.6794 220.495,57.6794 219.5,68.5 Z"/></g>
<g><path style="opacity:1" fill="#5ce1e5" d="M 219.5,68.5 C 217.5,68.5 215.5,68.5 213.5,68.5C 213.5,64.1667 213.5,59.8333 213.5,55.5C 210.167,55.5 206.833,55.5 203.5,55.5C 203.5,59.8333 203.5,64.1667 203.5,68.5C 201.5,68.5 199.5,68.5 197.5,68.5C 197.5,57.8333 197.5,47.1667 197.5,36.5C 199.5,36.5 201.5,36.5 203.5,36.5C 203.5,40.8333 203.5,45.1667 203.5,49.5C 206.833,49.5 210.167,49.5 213.5,49.5C 213.5,45.1667 213.5,40.8333 213.5,36.5C 215.5,36.5 217.5,36.5 219.5,36.5C 219.5,47.1667 219.5,57.8333 219.5,68.5 Z"/></g>
<g><path style="opacity:0.835" fill="#ffe0b2" d="M 394.5,47.5 C 396.262,48.2623 397.262,49.5956 397.5,51.5C 395.738,50.7377 394.738,49.4044 394.5,47.5 Z"/></g>
<g><path style="opacity:0.682" fill="#fed390" d="M 344.5,52.5 C 343.833,57.8333 343.167,63.1667 342.5,68.5C 342.171,62.4632 342.504,56.4632 343.5,50.5C 344.298,50.9569 344.631,51.6236 344.5,52.5 Z"/></g>
<g><path style="opacity:0.067" fill="#fffaf1" d="M 390.5,53.5 C 389.833,58.5 389.167,63.5 388.5,68.5C 388.334,62.8236 388.501,57.1569 389,51.5C 389.717,52.0442 390.217,52.7109 390.5,53.5 Z"/></g>
<g><path style="opacity:1" fill="#79e5e9" d="M 59.5,52.5 C 66.9905,52.3233 68.9905,55.4899 65.5,62C 60.9206,63.5772 57.9206,62.0772 56.5,57.5C 57.2599,55.6396 58.2599,53.973 59.5,52.5 Z"/></g>
<g><path style="opacity:0.11" fill="#ddf9f9" d="M 283.5,48.5 C 286.5,48.5 289.5,48.5 292.5,48.5C 292.5,51.1667 292.5,53.8333 292.5,56.5C 289.5,56.5 286.5,56.5 283.5,56.5C 285.948,55.5269 288.615,55.1936 291.5,55.5C 291.5,53.5 291.5,51.5 291.5,49.5C 288.615,49.8064 285.948,49.4731 283.5,48.5 Z"/></g>
<g><path style="opacity:0.035" fill="#e8fbfb" d="M 213.5,68.5 C 212.517,64.7016 212.183,60.7016 212.5,56.5C 209.833,56.5 207.167,56.5 204.5,56.5C 204.817,60.7016 204.483,64.7016 203.5,68.5C 203.5,64.1667 203.5,59.8333 203.5,55.5C 206.833,55.5 210.167,55.5 213.5,55.5C 213.5,59.8333 213.5,64.1667 213.5,68.5 Z"/></g>
<g><path style="opacity:0.537" fill="#ffe1b5" d="M 429.5,56.5 C 429.573,58.0269 428.906,59.0269 427.5,59.5C 427.427,57.9731 428.094,56.9731 429.5,56.5 Z"/></g>
<g><path style="opacity:0.494" fill="#c4f3f6" d="M 283.5,61.5 C 287.167,61.5 290.833,61.5 294.5,61.5C 294.802,64.0593 294.468,66.3926 293.5,68.5C 293.5,66.5 293.5,64.5 293.5,62.5C 289.958,62.8128 286.625,62.4794 283.5,61.5 Z"/></g>
<g><path style="opacity:1" fill="#7be5e9" d="M 78.5,67.5 C 83.3347,68.1605 85.1681,70.8271 84,75.5C 79.4468,79.9034 76.2802,79.0701 74.5,73C 74.9009,70.44 76.2342,68.6066 78.5,67.5 Z"/></g>
<g><path style="opacity:0.392" fill="#ffeaca" d="M 216.5,77.5 C 213.833,76.1667 211.167,76.1667 208.5,77.5C 207.957,77.44 207.624,77.1067 207.5,76.5C 210.833,75.1667 214.167,75.1667 217.5,76.5C 217.376,77.1067 217.043,77.44 216.5,77.5 Z"/></g>
<g><path style="opacity:0.271" fill="#ffeed5" d="M 252.5,76.5 C 252.56,75.9569 252.893,75.6236 253.5,75.5C 254.386,76.325 254.719,77.325 254.5,78.5C 254.167,78.5 253.833,78.5 253.5,78.5C 253.672,77.5084 253.338,76.8417 252.5,76.5 Z"/></g>
<g><path style="opacity:0.392" fill="#ffe6c0" d="M 289.5,76.5 C 286.615,76.1936 283.948,76.5269 281.5,77.5C 280.957,77.44 280.624,77.1067 280.5,76.5C 283.645,75.1968 286.645,75.1968 289.5,76.5 Z"/></g>
<g><path style="opacity:0.949" fill="#ffcb80" d="M 194.5,80.5 C 195.29,79.3915 195.79,78.0581 196,76.5C 196.499,80.1516 196.665,83.8183 196.5,87.5C 194.744,86.4479 194.077,84.7812 194.5,82.5C 193.167,82.5 191.833,82.5 190.5,82.5C 190.785,84.288 190.452,85.9547 189.5,87.5C 188.167,83.5 188.167,79.5 189.5,75.5C 190.452,77.0453 190.785,78.712 190.5,80.5C 191.833,80.5 193.167,80.5 194.5,80.5 Z"/></g>
<g><path style="opacity:0.259" fill="#ffefd7" d="M 198.5,86.5 C 198.5,86.8333 198.5,87.1667 198.5,87.5C 197.833,87.5 197.167,87.5 196.5,87.5C 196.665,83.8183 196.499,80.1516 196,76.5C 195.79,78.0581 195.29,79.3915 194.5,80.5C 194.5,78.8333 194.5,77.1667 194.5,75.5C 195.5,75.5 196.5,75.5 197.5,75.5C 197.185,79.3714 197.518,83.0381 198.5,86.5 Z"/></g>
<g><path style="opacity:0.471" fill="#ffe2b8" d="M 227.5,76.5 C 225.833,76.5 224.167,76.5 222.5,76.5C 222.5,80.1667 222.5,83.8333 222.5,87.5C 221.517,83.7016 221.183,79.7016 221.5,75.5C 223.735,75.2053 225.735,75.5386 227.5,76.5 Z"/></g>
<g><path style="opacity:0.999" fill="#febd5b" d="M 227.5,76.5 C 227.158,77.3382 226.492,77.6716 225.5,77.5C 223.631,79.6353 222.964,82.3019 223.5,85.5C 224.5,86.1667 225.5,86.8333 226.5,87.5C 225.167,87.5 223.833,87.5 222.5,87.5C 222.5,83.8333 222.5,80.1667 222.5,76.5C 224.167,76.5 225.833,76.5 227.5,76.5 Z"/></g>
<g><path style="opacity:0.133" fill="#fff0da" d="M 248.5,77.5 C 247.604,76.4937 246.938,76.4937 246.5,77.5C 245.115,76.6977 245.282,76.0311 247,75.5C 248.03,75.8361 248.53,76.5028 248.5,77.5 Z"/></g>
<g><path style="opacity:0.984" fill="#ffd89e" d="M 254.5,78.5 C 259.795,73.823 263.461,74.823 265.5,81.5C 264.897,87.4629 261.897,89.2963 256.5,87C 254.821,84.4355 254.154,81.6021 254.5,78.5 Z M 259.5,77.5 C 262.183,79.0408 263.016,81.3741 262,84.5C 258.869,86.1657 257.369,85.1657 257.5,81.5C 257.803,79.8857 258.47,78.5523 259.5,77.5 Z"/></g>
<g><path style="opacity:0.229" fill="#ffe2b8" d="M 273.5,84.5 C 272.552,85.9779 271.219,86.9779 269.5,87.5C 268.25,87.4226 267.417,86.756 267,85.5C 266.502,82.1832 266.335,78.8499 266.5,75.5C 267.5,75.5 268.5,75.5 269.5,75.5C 269.5,78.8333 269.5,82.1667 269.5,85.5C 270.959,85.5674 272.292,85.2341 273.5,84.5 Z"/></g>
<g><path style="opacity:0.504" fill="#fedfaf" d="M 275.5,76.5 C 274.833,79.1667 274.167,81.8333 273.5,84.5C 273.183,81.4281 273.516,78.4281 274.5,75.5C 275.107,75.6236 275.44,75.9569 275.5,76.5 Z"/></g>
<g><path style="opacity:0.933" fill="#ffcb81" d="M 275.5,76.5 C 275.665,79.8499 275.498,83.1832 275,86.5C 273.21,88.2912 271.377,88.6246 269.5,87.5C 271.219,86.9779 272.552,85.9779 273.5,84.5C 274.167,81.8333 274.833,79.1667 275.5,76.5 Z"/></g>
<g><path style="opacity:1" fill="#ffd392" d="M 281.5,77.5 C 283.948,76.5269 286.615,76.1936 289.5,76.5C 288.791,77.404 287.791,77.7373 286.5,77.5C 286.5,80.8333 286.5,84.1667 286.5,87.5C 285.5,87.5 284.5,87.5 283.5,87.5C 284.069,83.6707 283.402,80.3373 281.5,77.5 Z"/></g>
<g><path style="opacity:0.212" fill="#fff0da" d="M 293.5,80.5 C 292.71,79.3915 292.21,78.0581 292,76.5C 291.501,80.1516 291.335,83.8183 291.5,87.5C 290.517,83.7016 290.183,79.7016 290.5,75.5C 291.5,75.5 292.5,75.5 293.5,75.5C 293.5,77.1667 293.5,78.8333 293.5,80.5 Z"/></g>
<g><path style="opacity:0.533" fill="#ffd494" d="M 302.5,75.5 C 303.794,77.0478 304.461,79.0478 304.5,81.5C 304.167,83.5 303.833,85.5 303.5,87.5C 302.509,83.5546 302.176,79.5546 302.5,75.5 Z"/></g>
<g><path style="opacity:0.212" fill="#fff0d9" d="M 321.5,79.5 C 321.217,80.2891 320.717,80.9558 320,81.5C 319.667,79.8333 319.333,78.1667 319,76.5C 318.501,80.1516 318.335,83.8183 318.5,87.5C 317.517,83.7016 317.183,79.7016 317.5,75.5C 318.5,75.5 319.5,75.5 320.5,75.5C 320.232,77.099 320.566,78.4324 321.5,79.5 Z"/></g>
<g><path style="opacity:0.847" fill="#fec878" d="M 208.5,77.5 C 211.167,76.1667 213.833,76.1667 216.5,77.5C 215.5,77.5 214.5,77.5 213.5,77.5C 212.833,90.8333 212.167,90.8333 211.5,77.5C 210.5,77.5 209.5,77.5 208.5,77.5 Z"/></g>
<g><path style="opacity:0.816" fill="#ffd69a" d="M 173.5,75.5 C 174.376,75.3691 175.043,75.7025 175.5,76.5C 176.785,84.183 177.785,83.8497 178.5,75.5C 179.5,75.5 180.5,75.5 181.5,75.5C 181.838,77.854 182.338,80.1873 183,82.5C 183.376,79.9899 184.21,77.6565 185.5,75.5C 186.601,79.2468 186.268,82.9134 184.5,86.5C 183.675,87.3857 182.675,87.719 181.5,87.5C 180.5,78.1667 179.5,78.1667 178.5,87.5C 176.876,87.6399 175.71,86.9733 175,85.5C 174.174,82.2072 173.674,78.8738 173.5,75.5 Z"/></g>
<g><path style="opacity:0.804" fill="#ffdca9" d="M 248.5,77.5 C 249.167,78.5 249.833,79.5 250.5,80.5C 249.631,82.717 249.298,85.0504 249.5,87.5C 248.716,84.2047 247.716,80.8714 246.5,77.5C 246.938,76.4937 247.604,76.4937 248.5,77.5 Z"/></g>
<g><path style="opacity:0.875" fill="#ffd8a1" d="M 252.5,76.5 C 253.338,76.8417 253.672,77.5084 253.5,78.5C 253.34,80.153 252.674,81.4863 251.5,82.5C 251.672,81.5084 251.338,80.8417 250.5,80.5C 250.66,78.847 251.326,77.5137 252.5,76.5 Z"/></g>
<g><path style="opacity:0.878" fill="#ffd596" d="M 306.5,75.5 C 309.536,76.8124 311.702,79.1458 313,82.5C 313.186,80.0995 313.686,77.7662 314.5,75.5C 315.491,79.4454 315.824,83.4454 315.5,87.5C 312.225,86.3861 310.058,84.0527 309,80.5C 308.814,82.9005 308.314,85.2338 307.5,87.5C 306.509,83.5546 306.176,79.5546 306.5,75.5 Z"/></g>
<g><path style="opacity:1" fill="#ffcf89" d="M 321.5,79.5 C 321.932,78.2905 322.599,77.2905 323.5,76.5C 324.492,76.3284 325.158,76.6618 325.5,77.5C 323.395,80.9281 324.062,84.0948 327.5,87C 324.716,87.4172 322.716,86.2505 321.5,83.5C 320.943,85.3316 319.943,86.6649 318.5,87.5C 318.335,83.8183 318.501,80.1516 319,76.5C 319.333,78.1667 319.667,79.8333 320,81.5C 320.717,80.9558 321.217,80.2891 321.5,79.5 Z"/></g>
<g><path style="opacity:0.878" fill="#ffdba6" d="M 323.5,76.5 C 326.162,75.9786 329.162,75.8119 332.5,76C 333.826,79.2026 333.159,82.036 330.5,84.5C 329.22,82.2756 329.553,80.2756 331.5,78.5C 329.585,78.6837 327.585,78.3503 325.5,77.5C 325.158,76.6618 324.492,76.3284 323.5,76.5 Z"/></g>
<g><path style="opacity:0.775" fill="#ffd597" d="M 227.5,76.5 C 229.884,77.4251 230.884,79.2585 230.5,82C 230.858,85.1335 229.525,86.9668 226.5,87.5C 225.5,86.8333 224.5,86.1667 223.5,85.5C 229.282,84.1522 229.948,81.4855 225.5,77.5C 226.492,77.6716 227.158,77.3382 227.5,76.5 Z"/></g>
<g><path style="opacity:0.671" fill="#ffcf88" d="M 291.5,87.5 C 291.335,83.8183 291.501,80.1516 292,76.5C 292.21,78.0581 292.71,79.3915 293.5,80.5C 294.833,80.5 296.167,80.5 297.5,80.5C 297.215,78.712 297.548,77.0453 298.5,75.5C 299.833,79.5 299.833,83.5 298.5,87.5C 297.548,85.9547 297.215,84.288 297.5,82.5C 296.167,82.5 294.833,82.5 293.5,82.5C 293.923,84.7812 293.256,86.4479 291.5,87.5 Z"/></g>
<g><path style="opacity:1" fill="#ffc877" d="M 250.5,80.5 C 251.338,80.8417 251.672,81.5084 251.5,82.5C 251.923,84.7812 251.256,86.4479 249.5,87.5C 249.298,85.0504 249.631,82.717 250.5,80.5 Z"/></g>
<g><path style="opacity:0.933" fill="#ffd598" d="M 198.5,87.5 C 198.5,87.1667 198.5,86.8333 198.5,86.5C 198.942,82.3277 200.442,78.661 203,75.5C 205.395,78.9919 207.228,82.8252 208.5,87C 208,87.1667 207.5,87.3333 207,87.5C 205.864,86.2173 204.531,85.2173 203,84.5C 201.493,85.5549 199.993,86.5549 198.5,87.5 Z"/></g>
<g><path style="opacity:0.831" fill="#ffd79c" d="M 234.5,75.5 C 239.378,74.874 242.045,77.0406 242.5,82C 240.795,88.7739 237.295,89.9406 232,85.5C 230.863,81.5369 231.697,78.2036 234.5,75.5 Z M 235.5,77.5 C 239.146,78.4615 240.313,80.7949 239,84.5C 236.239,86.0172 234.406,85.1838 233.5,82C 234.267,80.5295 234.933,79.0295 235.5,77.5 Z"/></g>
<g><path style="opacity:0.627" fill="#ffdeae" d="M 328.5,85.5 C 329.5,85.5 330.5,85.5 331.5,85.5C 330.754,89.31 329.754,89.31 328.5,85.5 Z"/></g>
<g><path style="opacity:1" fill="#77e5e9" d="M 85.5,87.5 C 93.4061,87.4285 95.7394,90.9285 92.5,98C 84.923,101.09 81.7564,98.5898 83,90.5C 83.6979,89.3094 84.5313,88.3094 85.5,87.5 Z"/></g>
<g><path style="opacity:1" fill="#79e5e9" d="M 102.5,96.5 C 110.935,95.8639 113.268,99.3639 109.5,107C 104.127,109.324 100.794,107.657 99.5,102C 99.6132,99.6013 100.613,97.7679 102.5,96.5 Z"/></g>
</svg>
